<svg width="74" height="76" viewBox="0 0 74 76" fill="none" xmlns="http://www.w3.org/2000/svg">
<path d="M1 2.99994C1 1.89537 1.89543 0.999939 3 0.999939H29.343C30.6292 0.999939 31.581 2.19642 31.2918 3.44965L26.1351 25.7956C25.9648 26.5337 25.392 27.1123 24.6556 27.29L3.46928 32.4039C2.21098 32.7076 1 31.7542 1 30.4597V2.99994Z" fill="#2D5BFF" stroke="#2D5BFF"/>
<path d="M41.9732 31.4907C43.4966 31.0628 44.89 32.4896 44.4262 34.0024L34.042 67.8734C33.4424 69.8291 30.641 69.73 30.1811 67.7369L26.1351 50.2044C25.9648 49.4662 25.392 48.8877 24.6556 48.7099L8.44771 44.7977C6.4453 44.3144 6.39296 41.4851 8.37612 40.9281L41.9732 31.4907Z" fill="#2D5BFF" stroke="#2D5BFF"/>
<path d="M72.8572 73C72.8572 74.1046 71.9617 75 70.8572 75H44.5141C43.228 75 42.2762 73.8035 42.5654 72.5503L47.722 50.2044C47.8924 49.4662 48.4652 48.8877 49.2016 48.7099L70.3879 43.596C71.6462 43.2923 72.8572 44.2458 72.8572 45.5402V73Z" fill="#2D5BFF" stroke="#2D5BFF"/>
<path d="M72.8572 2.99994C72.8572 1.89537 71.9617 0.999939 70.8572 0.999939H44.5141C43.228 0.999939 42.2762 2.19642 42.5654 3.44965L47.722 25.7956C47.8924 26.5337 48.4652 27.1123 49.2016 27.29L70.3879 32.4039C71.6462 32.7076 72.8572 31.7542 72.8572 30.4597V2.99994Z" fill="#2D5BFF" stroke="#2D5BFF"/>
</svg>
